<svg width="1467" height="1043" viewBox="0 0 1467 1043" fill="none" xmlns="http://www.w3.org/2000/svg">
<g id="loaderOne">
<g id="Rectangle 1" filter="url(#filter0_b_18_5852)">
<rect x="180" y="478" width="395" height="422" rx="8" fill="#3B4856" fill-opacity="0.3"/>
</g>
<g id="Rectangle 4" filter="url(#filter1_b_18_5852)">
<rect x="796" y="478" width="132" height="190" rx="4" fill="#3B4856" fill-opacity="0.3"/>
</g>
<g id="Rectangle 85" filter="url(#filter2_b_18_5852)">
<rect x="958" y="479" width="132" height="190" rx="4" fill="#3B4856" fill-opacity="0.3"/>
</g>
<g id="Rectangle 89" filter="url(#filter3_b_18_5852)">
<rect x="1120" y="480" width="132" height="190" rx="4" fill="#3B4856" fill-opacity="0.3"/>
</g>
<rect id="Rectangle 76" x="257" y="522" width="241" height="147" rx="4" fill="#E5E5E5"/>
<rect id="Rectangle 96" x="180" y="190" width="404" height="97" rx="4" fill="#E5E5E5"/>
<rect id="Rectangle 95" x="180" y="442" width="395" height="29" rx="4" fill="#E5E5E5"/>
<rect id="Rectangle 93" x="832" y="210" width="171" height="66" rx="4" fill="#E5E5E5"/>
<rect id="Rectangle 94" x="1048" y="210" width="171" height="66" rx="4" fill="#E5E5E5"/>
<rect id="Rectangle 82" x="826" y="505" width="72" height="28" rx="4" fill="#E5E5E5"/>
<rect id="Rectangle 86" x="988" y="506" width="72" height="28" rx="4" fill="#E5E5E5"/>
<rect id="Rectangle 90" x="1150" y="507" width="72" height="28" rx="4" fill="#E5E5E5"/>
<rect id="Rectangle 84" x="826" y="613" width="72" height="28" rx="4" fill="#E5E5E5"/>
<rect id="Rectangle 87" x="988" y="614" width="72" height="28" rx="4" fill="#E5E5E5"/>
<rect id="Rectangle 91" x="1150" y="615" width="72" height="28" rx="4" fill="#E5E5E5"/>
<rect id="Rectangle 83" x="839" y="553" width="46" height="43" rx="21.5" fill="#E5E5E5"/>
<rect id="Rectangle 97" x="424" y="689" width="46" height="43" rx="21.5" fill="#E5E5E5"/>
<rect id="Rectangle 88" x="1001" y="554" width="46" height="43" rx="21.5" fill="#E5E5E5"/>
<rect id="Rectangle 92" x="1163" y="555" width="46" height="43" rx="21.5" fill="#E5E5E5"/>
<rect id="Rectangle 77" x="284" y="690" width="131" height="41" rx="4" fill="#E5E5E5"/>
<rect id="Rectangle 78" x="234" y="799" width="111" height="28" rx="4" fill="#E5E5E5"/>
<rect id="Rectangle 80" x="412" y="799" width="111" height="28" rx="4" fill="#E5E5E5"/>
<rect id="Rectangle 79" x="234" y="837" width="111" height="28" rx="4" fill="#E5E5E5"/>
<rect id="Rectangle 81" x="412" y="837" width="111" height="28" rx="4" fill="#E5E5E5"/>
</g>
<defs>
<filter id="filter0_b_18_5852" x="176" y="474" width="403" height="430" filterUnits="userSpaceOnUse" color-interpolation-filters="sRGB">
<feFlood flood-opacity="0" result="BackgroundImageFix"/>
<feGaussianBlur in="BackgroundImage" stdDeviation="2"/>
<feComposite in2="SourceAlpha" operator="in" result="effect1_backgroundBlur_18_5852"/>
<feBlend mode="normal" in="SourceGraphic" in2="effect1_backgroundBlur_18_5852" result="shape"/>
</filter>
<filter id="filter1_b_18_5852" x="792" y="474" width="140" height="198" filterUnits="userSpaceOnUse" color-interpolation-filters="sRGB">
<feFlood flood-opacity="0" result="BackgroundImageFix"/>
<feGaussianBlur in="BackgroundImage" stdDeviation="2"/>
<feComposite in2="SourceAlpha" operator="in" result="effect1_backgroundBlur_18_5852"/>
<feBlend mode="normal" in="SourceGraphic" in2="effect1_backgroundBlur_18_5852" result="shape"/>
</filter>
<filter id="filter2_b_18_5852" x="954" y="475" width="140" height="198" filterUnits="userSpaceOnUse" color-interpolation-filters="sRGB">
<feFlood flood-opacity="0" result="BackgroundImageFix"/>
<feGaussianBlur in="BackgroundImage" stdDeviation="2"/>
<feComposite in2="SourceAlpha" operator="in" result="effect1_backgroundBlur_18_5852"/>
<feBlend mode="normal" in="SourceGraphic" in2="effect1_backgroundBlur_18_5852" result="shape"/>
</filter>
<filter id="filter3_b_18_5852" x="1116" y="476" width="140" height="198" filterUnits="userSpaceOnUse" color-interpolation-filters="sRGB">
<feFlood flood-opacity="0" result="BackgroundImageFix"/>
<feGaussianBlur in="BackgroundImage" stdDeviation="2"/>
<feComposite in2="SourceAlpha" operator="in" result="effect1_backgroundBlur_18_5852"/>
<feBlend mode="normal" in="SourceGraphic" in2="effect1_backgroundBlur_18_5852" result="shape"/>
</filter>
</defs>
</svg>
